<?xml version="1.0" standalone="no"?>
<!DOCTYPE svg PUBLIC "-//W3C//DTD SVG 20010904//EN"
 "http://www.w3.org/TR/2001/REC-SVG-20010904/DTD/svg10.dtd">
<svg version="1.0" xmlns="http://www.w3.org/2000/svg"
 width="400.000000pt" height="400.000000pt" viewBox="0 0 400.000000 400.000000"
 preserveAspectRatio="xMidYMid meet">

<g transform="translate(0.000000,400.000000) scale(0.100000,-0.100000)"
fill="#000000" stroke="none">
<path d="M0 2000 l0 -2000 2000 0 2000 0 0 2000 0 2000 -2000 0 -2000 0 0
-2000z m2448 1120 c167 -34 285 -81 417 -169 69 -45 215 -176 215 -192 0 -4
-73 -76 -162 -158 l-162 -150 -66 63 c-77 74 -165 127 -269 164 -69 24 -90 26
-231 26 -140 0 -162 -2 -232 -26 -116 -39 -204 -93 -283 -172 -149 -150 -218
-364 -194 -599 35 -346 290 -600 629 -625 240 -19 414 39 575 190 l72 68 159
-147 c87 -81 160 -152 162 -158 4 -16 -131 -143 -204 -192 -186 -126 -394
-190 -654 -200 -371 -14 -699 105 -936 342 -218 218 -324 482 -324 810 0 91 6
166 19 233 98 505 502 856 1056 916 89 9 313 -3 413 -24z"/>
</g>
</svg>
